<svg height="958" width="720" xmlns="http://www.w3.org/2000/svg">
<rect height="958" fill="#555" width="720"></rect>
<text fill="#7f7" font-family="Courier New" font-size="12" xml:space="preserve">
<tspan x="10" y="26">12 megabytes installed</tspan>
<tspan x="10" y="42"></tspan>
<tspan x="10" y="58">node_modules</tspan>
<tspan x="10" y="74">├── UNMET PEER DEPENDENCY react@^0.14.0 || ^15.0.0</tspan>
<tspan x="10" y="90">├── UNMET PEER DEPENDENCY react-dom@^0.14.0 || ^15.0.0</tspan>
<tspan x="10" y="106">└─┬ slate@0.19.20 </tspan>
<tspan x="10" y="122">  ├─┬ cheerio@0.22.0 </tspan>
<tspan x="10" y="138">  │ ├─┬ css-select@1.2.0 </tspan>
<tspan x="10" y="154">  │ │ ├── boolbase@1.0.0 </tspan>
<tspan x="10" y="170">  │ │ ├── css-what@2.1.0 </tspan>
<tspan x="10" y="186">  │ │ ├── domutils@1.5.1 </tspan>
<tspan x="10" y="202">  │ │ └── nth-check@1.0.1 </tspan>
<tspan x="10" y="218">  │ ├─┬ dom-serializer@0.1.0 </tspan>
<tspan x="10" y="234">  │ │ └── domelementtype@1.1.3 </tspan>
<tspan x="10" y="250">  │ ├── entities@1.1.1 </tspan>
<tspan x="10" y="266">  │ ├─┬ htmlparser2@3.9.2 </tspan>
<tspan x="10" y="282">  │ │ ├── domelementtype@1.3.0 </tspan>
<tspan x="10" y="298">  │ │ ├── domhandler@2.3.0 </tspan>
<tspan x="10" y="314">  │ │ ├── inherits@2.0.3 </tspan>
<tspan x="10" y="330">  │ │ └─┬ readable-stream@2.2.9 </tspan>
<tspan x="10" y="346">  │ │   ├── buffer-shims@1.0.0 </tspan>
<tspan x="10" y="362">  │ │   ├── core-util-is@1.0.2 </tspan>
<tspan x="10" y="378">  │ │   ├── isarray@1.0.0 </tspan>
<tspan x="10" y="394">  │ │   ├── process-nextick-args@1.0.7 </tspan>
<tspan x="10" y="410">  │ │   ├── string_decoder@1.0.0 </tspan>
<tspan x="10" y="426">  │ │   └── util-deprecate@1.0.2 </tspan>
<tspan x="10" y="442">  │ ├── lodash.assignin@4.2.0 </tspan>
<tspan x="10" y="458">  │ ├── lodash.bind@4.2.1 </tspan>
<tspan x="10" y="474">  │ ├── lodash.defaults@4.2.0 </tspan>
<tspan x="10" y="490">  │ ├── lodash.filter@4.6.0 </tspan>
<tspan x="10" y="506">  │ ├── lodash.flatten@4.4.0 </tspan>
<tspan x="10" y="522">  │ ├── lodash.foreach@4.5.0 </tspan>
<tspan x="10" y="538">  │ ├── lodash.map@4.6.0 </tspan>
<tspan x="10" y="554">  │ ├── lodash.merge@4.6.0 </tspan>
<tspan x="10" y="570">  │ ├── lodash.pick@4.4.0 </tspan>
<tspan x="10" y="586">  │ ├── lodash.reduce@4.6.0 </tspan>
<tspan x="10" y="602">  │ ├── lodash.reject@4.6.0 </tspan>
<tspan x="10" y="618">  │ └── lodash.some@4.6.0 </tspan>
<tspan x="10" y="634">  ├─┬ debug@2.6.3 </tspan>
<tspan x="10" y="650">  │ └── ms@0.7.2 </tspan>
<tspan x="10" y="666">  ├── direction@0.1.5 </tspan>
<tspan x="10" y="682">  ├─┬ es6-map@0.1.5 </tspan>
<tspan x="10" y="698">  │ ├── d@1.0.0 </tspan>
<tspan x="10" y="714">  │ ├── es5-ext@0.10.15 </tspan>
<tspan x="10" y="730">  │ ├── es6-iterator@2.0.1 </tspan>
<tspan x="10" y="746">  │ ├── es6-set@0.1.5 </tspan>
<tspan x="10" y="762">  │ ├── es6-symbol@3.1.1 </tspan>
<tspan x="10" y="778">  │ └── event-emitter@0.3.5 </tspan>
<tspan x="10" y="794">  ├── esrever@0.2.0 </tspan>
<tspan x="10" y="810">  ├─┬ get-window@1.1.1 </tspan>
<tspan x="10" y="826">  │ └── get-document@1.0.0 </tspan>
<tspan x="10" y="842">  ├── immutable@3.8.1 </tspan>
<tspan x="10" y="858">  ├── is-empty@1.2.0 </tspan>
<tspan x="10" y="874">  ├── is-in-browser@1.1.3 </tspan>
<tspan x="10" y="890">  ├── keycode@2.1.8 </tspan>
<tspan x="10" y="906">  ├── react-portal@3.0.0 </tspan>
<tspan x="10" y="922">  ├── selection-is-backward@1.0.0 </tspan>
<tspan x="10" y="938">  └── type-of@2.0.1</tspan>
</text>
</svg>
